<svg width="48" height="39" viewBox="0 0 48 39" fill="none" xmlns="http://www.w3.org/2000/svg">
<path fill-rule="evenodd" clip-rule="evenodd" d="M47.9534 20.4504C47.9232 20.426 47.8793 20.4183 47.8451 20.4295C47.8033 20.4421 47.765 20.453 47.7289 20.4634L47.7113 20.4684C47.6222 20.4939 47.5453 20.5158 47.4691 20.5457C46.2653 21.014 45.3175 21.8162 44.5716 22.998C44.3874 23.29 44.2447 23.5936 44.1311 23.8963C44.3174 22.8781 44.3606 22.4814 44.3936 21.342C44.3952 21.2942 44.3952 21.2456 44.3952 21.1973C44.3952 21.0655 44.3952 20.941 44.4246 20.8274C44.4599 20.6928 44.5308 20.5585 44.5994 20.4286C44.6188 20.3918 44.6381 20.3551 44.654 20.3228C44.6596 20.3164 44.6774 20.3057 44.6844 20.3047C45.0287 20.2532 45.3331 20.1101 45.6154 19.8673C45.8998 19.6215 46.1336 19.3205 46.3106 18.9726C46.9459 17.7255 47.2638 16.3471 47.2558 14.8762C47.255 14.7342 47.238 14.5961 47.2193 14.4459C47.2108 14.3785 47.2021 14.3097 47.1949 14.2384C47.1908 14.1993 47.1662 14.1645 47.1306 14.1476C47.0954 14.1309 47.053 14.1321 47.0174 14.1531C46.996 14.1663 46.9776 14.177 46.9609 14.1865C46.9286 14.2053 46.904 14.22 46.8808 14.2364C46.3388 14.6167 45.8609 15.0901 45.46 15.6431C44.8057 16.547 44.4252 17.5691 44.3227 18.6936C44.3125 18.5682 44.3022 18.4429 44.2919 18.3175L44.2883 18.2721C44.2481 17.7807 44.2066 17.2725 44.1727 16.7728C44.1642 16.6463 44.1394 16.5232 44.1154 16.4041C44.069 16.1751 44.0252 15.9589 44.0953 15.7323C44.1113 15.6811 44.1247 15.6295 44.1382 15.578C44.1713 15.4506 44.3312 15.2543 44.5769 15.0397L44.5861 15.0316C44.6767 14.9564 45.1421 14.5396 45.4061 13.7152C45.674 12.8776 45.6538 12.0025 45.639 11.3634L45.6386 11.3464C45.619 10.468 45.522 9.80603 45.3242 9.19977C45.2987 9.12224 45.2683 9.04577 45.2362 8.96542C45.2195 8.9236 45.2024 8.88037 45.1849 8.83514C45.1705 8.79685 45.136 8.76901 45.0955 8.76243L45.0757 8.76067C45.0407 8.76067 45.0079 8.77606 44.9857 8.80261L44.7936 9.03179C43.8725 10.1315 43.42 11.4214 43.4483 12.8655C43.4532 13.1199 43.4726 13.3808 43.5071 13.6501C43.273 12.8592 42.9984 12.0893 42.6862 11.3486C42.6797 11.3324 42.6755 11.3123 42.675 11.2953L42.6728 11.1941C42.6696 11.0479 42.6662 10.8967 42.6726 10.748C42.6736 10.7234 42.6899 10.6791 42.7238 10.6355C42.7721 10.5731 42.8256 10.5121 42.881 10.4487C42.9755 10.3411 43.073 10.23 43.1503 10.1031C43.3992 9.69502 43.5161 9.21293 43.518 8.58576C43.5214 7.84746 43.4051 7.07051 43.1516 6.1405C43.0132 5.63315 42.8041 4.97403 42.4148 4.37646C42.3884 4.33628 42.3589 4.29846 42.3275 4.2584C42.3133 4.24066 42.2984 4.22175 42.2833 4.20143C42.2612 4.17241 42.2308 4.1555 42.1816 4.1555C42.1423 4.15832 42.1073 4.18017 42.0877 4.21412C41.5991 5.0774 41.3557 5.99966 41.3442 7.03363C41.3344 7.89574 41.4719 8.63756 41.6443 9.22385C41.2055 8.43904 40.7178 7.68077 40.1892 6.9615L40.1771 6.94517C40.1651 6.92955 40.16 6.92191 40.1609 6.92732C40.1276 6.69461 40.1046 6.50842 40.0886 6.34631C40.089 6.34384 40.0921 6.33022 40.1168 6.28981C40.1518 6.23154 40.19 6.17445 40.2307 6.11407C40.3123 5.99261 40.3966 5.86692 40.4506 5.72619C40.6135 5.30142 40.6501 4.81967 40.5622 4.25394C40.3691 3.00183 39.8052 1.87435 38.8387 0.806901C38.7392 0.697302 38.6293 0.600389 38.513 0.497955L38.4809 0.46941C38.4354 0.429118 38.3887 0.387886 38.3416 0.344305C38.3116 0.316347 38.2686 0.305892 38.227 0.317874C38.1876 0.330091 38.1572 0.362043 38.1479 0.401748L38.1268 0.492434C38.1124 0.552579 38.1012 0.600037 38.0929 0.64773C37.9628 1.40776 37.9723 2.22183 38.1221 3.13668C38.2706 4.04402 38.5667 4.8266 39.0209 5.5064C38.3398 4.72076 37.6772 4.06105 36.9848 3.4764C36.9817 3.47241 36.9772 3.46031 36.9768 3.45726C37.0309 3.00089 36.916 2.57095 36.6251 2.14289C36.2431 1.58032 35.7124 1.15156 35.0476 0.86869C34.6498 0.699769 34.2376 0.55023 33.834 0.403745C33.6407 0.333498 33.4474 0.263486 33.2483 0.188422C33.0482 0.11054 32.9627 0.0966783 32.9162 0.138733C32.8565 0.193239 32.8709 0.239757 32.8969 0.324335L32.9053 0.35194C33.1493 1.15637 33.473 1.79259 33.8953 2.29689C34.6705 3.22361 35.5771 3.69443 36.6655 3.73601C36.7037 3.73824 36.7339 3.74858 36.7463 3.75798C36.8995 3.87028 37.0123 3.96015 37.112 4.04919C37.4274 4.33135 37.738 4.63196 38.0418 4.94854C37.5899 4.67366 37.0375 4.54961 36.4154 4.58039C36.075 4.59718 35.7371 4.64605 35.4103 4.69327L35.3978 4.69515C35.3012 4.70902 35.2051 4.72276 35.1092 4.73603C34.8992 4.76387 34.6876 4.80029 34.5006 4.83224C34.4249 4.84552 34.244 4.88581 34.2024 4.97168C34.188 5.00105 34.1892 5.03323 34.2055 5.06248C34.2199 5.08797 34.2358 5.11194 34.253 5.13379C34.7927 5.81922 35.4083 6.27066 36.135 6.51371C37.0211 6.81161 37.8349 6.78706 38.5662 6.43665C38.678 6.37638 38.8129 6.34584 38.967 6.34584C39.0833 6.34584 39.1705 6.36381 39.1994 6.37027C39.2428 6.37732 39.3016 6.40105 39.3136 6.41632C39.7684 7.00168 40.2 7.62685 40.6031 8.28362C40.2625 7.95941 39.8184 7.7408 39.2134 7.59842C38.6831 7.47473 38.1409 7.44818 37.6168 7.42234L37.4412 7.41364C37.2768 7.40542 37.1124 7.3952 36.9431 7.38474L36.6592 7.36759C36.6224 7.36759 36.5875 7.38498 36.5662 7.41388C36.5425 7.44501 36.5369 7.48542 36.5508 7.52171C36.5622 7.55202 36.583 7.60547 36.5936 7.62333C37.1465 8.52855 37.7957 9.15466 38.5781 9.53761C39.343 9.91164 40.034 10.0105 40.7311 9.84738C40.8118 9.82835 40.9052 9.81825 41.0018 9.81825C41.2984 9.81825 41.5051 9.90682 41.5486 9.98882C41.9321 10.7633 42.2743 11.5681 42.5695 12.389C42.2599 11.9711 41.827 11.6318 41.2788 11.3779C40.7342 11.1263 40.1672 10.8963 39.6094 10.6699C39.3696 10.5729 39.1289 10.4755 38.8892 10.3759C38.8536 10.3606 38.8115 10.3638 38.7782 10.3853C38.7456 10.4065 38.7262 10.442 38.7262 10.4802C38.7262 10.5535 39.5218 12.7151 40.6772 13.5668C41.1486 13.9143 41.7292 14.2718 42.4613 14.2886C42.6804 14.2929 42.907 14.3232 43.0781 14.5136C43.1042 14.5439 43.1389 14.5676 43.1767 14.5801C43.2352 14.5989 43.2512 14.6339 43.28 14.7533C43.5172 15.7278 43.6898 16.7323 43.7962 17.7523C43.764 17.6488 43.7267 17.5442 43.6838 17.4384C43.4252 16.7964 42.99 16.2347 42.3142 15.6705C41.9658 15.3785 41.601 15.0957 41.2482 14.8221L41.2314 14.8092C41.0707 14.6846 40.9104 14.5604 40.7506 14.4347C40.7176 14.4087 40.6854 14.382 40.6481 14.3507L40.5484 14.2671C40.5134 14.2382 40.4615 14.2322 40.4207 14.2522C40.3788 14.2729 40.3537 14.3159 40.357 14.3619C40.3619 14.4308 40.3658 14.496 40.3696 14.5586L40.3715 14.5879C40.3794 14.7167 40.3868 14.8383 40.4002 14.9584C40.5252 16.1273 40.8803 17.1033 41.4857 17.9419C41.8604 18.4603 42.398 19.0939 43.2364 19.3936C43.4404 19.4669 43.5883 19.5779 43.7468 19.7771C43.8964 19.9637 43.9242 20.1341 43.9208 20.3486C43.9066 21.2471 43.8412 22.1385 43.7258 23.0114C43.6988 22.7685 43.6417 22.5184 43.554 22.2585C43.3724 21.7205 43.0895 21.1974 42.6888 20.6594C42.343 20.1935 41.9831 19.726 41.6351 19.2736L41.6119 19.2434C41.4739 19.0643 41.336 18.8849 41.2018 18.7094C41.1766 18.6734 41.1402 18.6604 41.1192 18.6533C41.0894 18.6391 41.0539 18.6377 41.0224 18.6508C40.9914 18.6637 40.9676 18.6892 40.9572 18.7205L40.9531 18.7327C40.9474 18.7491 40.9428 18.7637 40.9404 18.7783C40.7004 20.1792 40.8476 21.4344 41.3904 22.6159C41.6555 23.1936 42.011 23.8477 42.6379 24.3183C42.9241 24.5331 43.1501 24.8345 43.2742 25.1669C43.3004 25.2384 43.2995 25.2694 43.2965 25.2814C43.0312 26.3572 42.6846 27.3948 42.2633 28.3768C42.3718 27.8593 42.3643 27.3156 42.2405 26.7524C42.0647 25.954 41.7625 25.1804 41.493 24.5178L41.4122 24.3194C41.2859 24.009 41.1587 23.696 41.0273 23.3717C41.0106 23.3302 40.9704 23.3019 40.9168 23.2993C40.8745 23.2993 40.8356 23.3229 40.8155 23.3612L40.7731 23.4392C40.7545 23.4734 40.7371 23.5053 40.7222 23.5381C40.1801 24.7356 39.997 25.9632 40.1783 27.1868C40.3079 28.0617 40.5275 28.6881 40.8904 29.2182C41.0782 29.4921 41.2566 29.7973 41.289 30.1726C41.2967 30.2614 41.2931 30.3226 41.2526 30.3923C40.795 31.1769 40.2818 31.9173 39.7199 32.6052C39.722 32.6014 39.7241 32.5977 39.7262 32.5939C40.1305 31.8706 40.1428 31.0886 40.1015 30.4189C40.0658 29.8449 39.9986 29.2716 39.934 28.7174L39.9302 28.6853C39.9042 28.4633 39.8783 28.2414 39.8546 28.019C39.841 27.893 39.8257 27.7669 39.81 27.639L39.7892 27.4659C39.7847 27.4276 39.7608 27.3944 39.7265 27.3778C39.6626 27.3451 39.5593 27.3955 39.4477 27.5247C38.6808 28.4127 38.2049 29.4161 38.033 30.5073C37.8548 31.6386 37.9514 32.6068 38.3287 33.4672C38.3388 33.4901 38.3386 33.5368 38.3384 33.5525L38.3182 34.0475C38.3152 34.0831 38.296 34.1232 38.2801 34.1382C37.5143 34.8601 36.6712 35.4878 35.7664 36.0102C36.1946 35.6312 36.5026 35.1368 36.7021 34.5102C36.9233 33.8157 37.0368 33.0929 37.1468 32.3921L37.1564 32.3297C37.1954 32.0835 37.2361 31.8377 37.2776 31.5866L37.3246 31.3027C37.3313 31.2613 37.3146 31.22 37.2818 31.1952C37.2493 31.1698 37.2023 31.1637 37.1648 31.1794L37.1239 31.196C37.0802 31.2135 37.0422 31.2291 37.0063 31.2471C35.2958 32.0834 34.1699 34.0338 34.329 35.8847C34.354 36.1746 34.3268 36.4469 34.246 36.7166C34.2384 36.7412 34.2142 36.7678 34.2043 36.7723C33.3919 37.1077 32.6195 37.3524 31.8422 37.5204C31.8023 37.5294 31.7706 37.5574 31.7576 37.5951C31.7446 37.633 31.7525 37.6742 31.7791 37.7052C31.8636 37.8032 31.9372 37.9086 31.9976 38.0189C32.0225 38.064 32.0816 38.0871 32.1259 38.0759C32.7592 37.9344 33.3758 37.7513 33.9594 37.5312C34.0066 37.5126 34.0426 37.5038 34.0763 37.5092C34.2061 37.5261 34.3433 37.5522 34.4956 37.5892C34.527 37.5967 34.553 37.6109 34.5535 37.6096C34.8862 38.2588 35.4578 38.6723 36.3018 38.8735C36.4854 38.9166 36.6748 38.9484 36.8646 38.9679C37.0633 38.9885 37.285 38.9989 37.5232 38.9989C37.8532 38.9989 38.0885 38.979 38.0914 38.9787C38.8229 38.8986 39.4476 38.7375 40.0009 38.486C40.228 38.3829 40.4867 38.2442 40.6855 37.9965C40.7236 37.949 40.7172 37.8805 40.671 37.8407C40.1089 37.3552 39.5366 37.0024 38.9212 36.7623C38.0093 36.4076 37.1786 36.3115 36.3644 36.4648C36.2428 36.4879 36.124 36.517 36.0085 36.5505C36.7702 36.1048 37.4994 35.581 38.1881 34.9843C38.2013 34.9725 38.223 34.9622 38.2399 34.9593C38.3526 34.9409 38.5022 34.9184 38.6554 34.9076C38.6695 34.9076 38.6875 34.9143 38.6896 34.915C39.1045 35.3696 39.6391 35.5906 40.324 35.5906C40.3589 35.5906 40.3939 35.5899 40.4288 35.5887C41.1734 35.5652 41.922 35.3649 42.6541 34.9931C43.1862 34.7214 43.7408 34.405 44.1906 33.9333C44.2903 33.8284 44.3794 33.7097 44.458 33.6051L44.4656 33.5949C44.5004 33.5487 44.5356 33.5022 44.5717 33.4562C44.5914 33.4315 44.5997 33.3995 44.5945 33.3673C44.589 33.3363 44.5706 33.3087 44.5393 33.2887C44.5314 33.2845 44.341 33.1845 44.1671 33.1186C43.0028 32.6782 41.8274 32.6331 40.7062 32.9868C40.3391 33.1023 39.9936 33.2757 39.6572 33.5153C40.2793 32.8075 40.8553 32.0315 41.3783 31.1965C41.3839 31.1877 41.3988 31.1638 41.4036 31.1595C41.4493 31.1309 41.4961 31.1039 41.5428 31.0772C41.6264 31.0292 41.7131 30.9795 41.7944 30.9203C41.8631 30.8701 41.8824 30.8689 41.9518 30.9126C42.0499 30.9749 42.164 31.0073 42.2635 31.0328C42.8455 31.1787 43.4322 31.106 44.0812 30.8078C44.674 30.5357 45.1297 30.1057 45.5341 29.6816C46.1224 29.063 46.5067 28.5049 46.7438 27.9251C46.7936 27.8034 46.8292 27.6775 46.8661 27.546C46.8814 27.4908 46.897 27.4356 46.9135 27.3813C46.9316 27.323 46.9 27.2614 46.8412 27.241L46.7924 27.2374C46.5526 27.2374 44.4127 27.2718 43.1611 28.4606C42.8888 28.7193 42.6448 28.9942 42.4219 29.2951C42.917 28.2687 43.3369 27.1869 43.6753 26.064L43.6802 26.0475C43.6843 26.0338 43.6904 26.013 43.6945 26.0074L44.0219 25.5673C44.0341 25.5497 44.0356 25.5497 44.0548 25.5497C44.0633 25.5497 44.0726 25.5503 44.0833 25.5509L44.1533 25.555C44.3969 25.5698 44.5403 25.5677 44.6582 25.5496C45.1243 25.4776 45.545 25.2478 45.9443 24.847C46.878 23.9096 47.5207 22.7401 47.909 21.2719C47.9507 21.1146 47.9623 20.9558 47.9748 20.7874C47.9803 20.711 47.9864 20.6323 47.9953 20.551C47.999 20.512 47.9834 20.4748 47.9534 20.4504Z" fill="url(#paint0_linear)"/>
<path fill-rule="evenodd" clip-rule="evenodd" d="M16.2731 37.5194C15.4966 37.3515 14.7242 37.1069 13.9116 36.7715C13.9019 36.767 13.8778 36.7404 13.8702 36.7164C13.7892 36.4461 13.7621 36.1738 13.787 35.8839C13.9462 34.0329 12.8202 32.0826 11.1101 31.2464C11.0737 31.2283 11.0358 31.2127 10.9921 31.1952L10.9516 31.1787C10.913 31.1626 10.8661 31.1693 10.835 31.1938C10.8014 31.2192 10.7848 31.2605 10.7916 31.302L10.8384 31.5858C10.8799 31.8369 10.9206 32.0827 10.9596 32.3287L10.9694 32.393C11.0792 33.0921 11.1928 33.815 11.4139 34.5095C11.6135 35.1361 11.9214 35.6305 12.3497 36.0093C11.4449 35.4871 10.6018 34.8594 9.83603 34.1376C9.81995 34.1224 9.80087 34.0822 9.79811 34.0491L9.77759 33.5537C9.77747 33.5361 9.77723 33.4894 9.78743 33.4662C10.1646 32.6061 10.2612 31.6379 10.083 30.5066C9.91115 29.4154 9.43523 28.412 8.66831 27.524C8.57855 27.4201 8.49935 27.3674 8.43287 27.3674C8.41667 27.3674 8.40203 27.3706 8.39051 27.3765C8.35523 27.3936 8.33135 27.4269 8.32667 27.4653L8.30615 27.6381C8.29031 27.7664 8.27507 27.8923 8.26139 28.0184C8.23775 28.2407 8.21183 28.4626 8.18579 28.6846L8.18207 28.7167C8.11727 29.271 8.05007 29.8443 8.01455 30.4182C7.97327 31.0878 7.98551 31.8698 8.38979 32.5932C8.39195 32.5968 8.39387 32.6007 8.39603 32.6044C7.83407 31.9165 7.32107 31.1762 6.86339 30.3917C6.82295 30.3219 6.81947 30.2607 6.82703 30.1719C6.85955 29.7964 7.03787 29.4912 7.22567 29.2175C7.58843 28.6874 7.80803 28.061 7.93775 27.1861C8.11907 25.9625 7.93595 24.735 7.39379 23.5376C7.37891 23.5046 7.36151 23.4727 7.34291 23.4385L7.30055 23.3603C7.28027 23.3221 7.23695 23.297 7.19123 23.299C7.14563 23.3013 7.10543 23.3296 7.08887 23.3708C6.95735 23.6954 6.83015 24.0083 6.70379 24.3187L6.62303 24.5171C6.35351 25.1798 6.05123 25.9534 5.87555 26.7517C5.75171 27.3149 5.74415 27.8586 5.85275 28.3761C5.43131 27.3942 5.08487 26.3566 4.81955 25.2807C4.81655 25.2687 4.81559 25.2377 4.84187 25.1662C4.96595 24.8337 5.19191 24.5323 5.47823 24.3174C6.10499 23.8469 6.46055 23.1928 6.72563 22.6151C7.26839 21.4336 7.41563 20.1784 7.17563 18.7776C7.17311 18.7629 7.16855 18.7483 7.16315 18.7325L7.15883 18.7198C7.14839 18.6884 7.12463 18.663 7.09319 18.6498C7.06247 18.6372 7.02383 18.6395 6.99995 18.651C6.97595 18.6596 6.93959 18.6727 6.91595 18.7066C6.78011 18.8842 6.64223 19.0635 6.50423 19.2426L6.48107 19.2728C6.13307 19.7252 5.77319 20.1927 5.42735 20.6585C5.02667 21.1966 4.74371 21.7197 4.56215 22.2577C4.47455 22.5176 4.41731 22.7677 4.39031 23.0106C4.27499 22.1377 4.20959 21.2464 4.19531 20.3478C4.19195 20.1333 4.21979 19.9628 4.36943 19.7762C4.52783 19.5772 4.67579 19.4661 4.87979 19.3928C5.71799 19.093 6.25571 18.4595 6.63047 17.9411C7.23587 17.1024 7.59095 16.1266 7.71599 14.9578C7.72931 14.8375 7.73687 14.7158 7.74467 14.5871L7.74659 14.5578C7.75031 14.4952 7.75427 14.43 7.75931 14.3609C7.76243 14.3151 7.73735 14.2721 7.69547 14.2513C7.65491 14.2314 7.60295 14.2372 7.56767 14.2665L7.46819 14.3499C7.43075 14.3811 7.39871 14.4079 7.36547 14.434C7.20575 14.5596 7.04543 14.6839 6.88475 14.8085L6.86795 14.8214C6.51527 15.0949 6.15047 15.3776 5.80211 15.6697C5.12615 16.234 4.69091 16.7957 4.43231 17.4377C4.38959 17.5435 4.35215 17.6482 4.31999 17.7518C4.42631 16.7317 4.59899 15.7271 4.83611 14.7525C4.86491 14.6332 4.88099 14.5982 4.94015 14.5792C4.97735 14.5669 5.01203 14.5431 5.03735 14.5138C5.20931 14.3224 5.43575 14.2921 5.65511 14.2877C6.38711 14.2709 6.96767 13.9135 7.43891 13.566C8.59439 12.7141 9.38999 10.5527 9.38999 10.4794C9.38999 10.4412 9.37055 10.4056 9.33755 10.3841C9.30503 10.3631 9.26111 10.3601 9.22799 10.3746C8.98727 10.4746 8.74655 10.5719 8.49731 10.6728C7.94891 10.8955 7.38191 11.1255 6.83735 11.377C6.28931 11.6308 5.85623 11.9703 5.54663 12.388C5.84171 11.5673 6.18383 10.7626 6.56687 9.98929C6.61091 9.90589 6.81779 9.81731 7.11443 9.81731C7.21091 9.81731 7.30439 9.82742 7.38515 9.84645C8.08211 10.01 8.77319 9.91082 9.53807 9.53668C10.3206 9.15373 10.9698 8.52761 11.5228 7.62204C11.5333 7.60453 11.5541 7.55108 11.5652 7.52113C11.5793 7.48448 11.5736 7.44407 11.5504 7.41341C11.5288 7.38428 11.4942 7.36689 11.4502 7.36689C11.4498 7.36689 11.4496 7.36689 11.4492 7.36689L11.173 7.38392C11.0036 7.39438 10.8392 7.4046 10.6748 7.41282L10.4993 7.42151C9.97511 7.44736 9.43295 7.47391 8.90255 7.5976C8.29763 7.73998 7.85351 7.95859 7.51295 8.2828C7.91603 7.62603 8.34767 7.00109 8.80235 6.41574C8.81459 6.40023 8.87327 6.3765 8.92139 6.36863C8.94539 6.36311 9.03275 6.34514 9.14891 6.34514C9.30299 6.34514 9.43787 6.3758 9.55223 6.43735C10.2788 6.78518 11.0948 6.81102 11.9808 6.51312C12.7075 6.27008 13.323 5.81864 13.8625 5.13344C13.88 5.11135 13.8959 5.08727 13.9103 5.0619C13.9267 5.03265 13.9278 5.00046 13.9134 4.97109C13.8716 4.88534 13.6909 4.84505 13.6148 4.83166C13.4281 4.79971 13.2166 4.76329 13.0068 4.73545C12.9107 4.72229 12.8144 4.70855 12.718 4.69457L12.7056 4.69269C12.3787 4.64547 12.0408 4.5966 11.7004 4.5798C11.0783 4.54867 10.5259 4.67296 10.0739 4.94807C10.3778 4.63137 10.6884 4.33088 11.0038 4.0486C11.1035 3.95956 11.2163 3.86981 11.37 3.75716C11.3819 3.74823 11.4121 3.73778 11.4492 3.73566C12.5387 3.69396 13.4453 3.22314 14.2205 2.29654C14.6428 1.79212 14.9665 1.15591 15.2105 0.351473L15.2189 0.323868C15.2449 0.239289 15.2593 0.192771 15.1994 0.138265C15.1532 0.096211 15.0719 0.108663 14.8604 0.190657C14.6684 0.262901 14.4752 0.33303 14.2769 0.405039C13.8784 0.549645 13.4662 0.699184 13.0684 0.868106C12.4036 1.15097 11.8727 1.57974 11.4907 2.1423C11.1998 2.57036 11.0849 3.00042 11.139 3.45479C11.1386 3.45984 11.1341 3.47194 11.1334 3.47335C10.4394 4.05988 9.77603 4.72018 9.09491 5.50605C9.54911 4.82625 9.84515 4.04355 9.99371 3.13621C10.1435 2.22148 10.153 1.40729 10.0229 0.647262C10.0146 0.599687 10.0034 0.552112 9.98915 0.492554L9.96791 0.40081C9.95831 0.361458 9.92807 0.329624 9.88835 0.317407C9.84863 0.305895 9.80411 0.316115 9.77447 0.34372C9.72695 0.387536 9.68039 0.428886 9.63491 0.46906L9.60287 0.497371C9.48647 0.600039 9.37655 0.696952 9.27707 0.806551C8.31047 1.874 7.74671 3.00148 7.55363 4.25347C7.46567 4.81932 7.50215 5.30107 7.66523 5.72584C7.71923 5.86657 7.80347 5.99226 7.88735 6.11701C7.92575 6.17398 7.96415 6.23119 7.99931 6.28993C8.02523 6.3321 8.02739 6.34302 8.02727 6.34103C8.01131 6.50842 7.98839 6.69496 7.95743 6.91886C7.95611 6.92168 7.95179 6.92826 7.93799 6.94611L7.92683 6.96127C7.39823 7.68054 6.91055 8.4388 6.47171 9.22362C6.64427 8.63745 6.78167 7.89551 6.77195 7.03339C6.76019 5.99931 6.51695 5.07705 6.02807 4.21353C6.00875 4.17993 5.97371 4.15808 5.92463 4.1548C5.88899 4.1548 5.85467 4.17206 5.83223 4.20155C5.81759 4.22152 5.80271 4.24031 5.78855 4.25817C5.75699 4.29811 5.72747 4.33593 5.70107 4.37634C5.31179 4.97391 5.10299 5.6328 4.96439 6.14015C4.71107 7.07063 4.59467 7.84758 4.59803 8.58541C4.59995 9.21258 4.71671 9.69467 4.96559 10.1026C5.04299 10.2296 5.14043 10.3408 5.23835 10.4526C5.29031 10.5119 5.34371 10.5729 5.39207 10.6354C5.42591 10.6788 5.44223 10.7231 5.44319 10.7478C5.44955 10.8965 5.44619 11.0477 5.44295 11.1938L5.44067 11.2948C5.44031 11.3122 5.43623 11.3322 5.43011 11.3475C5.11763 12.0886 4.84295 12.8588 4.60871 13.6499C4.64315 13.3805 4.66259 13.1197 4.66751 12.8653C4.69583 11.4211 4.24331 10.1314 3.32219 9.03156L3.13019 8.80261C3.10799 8.77571 3.07511 8.76044 3.04007 8.76044L3.02087 8.76208C2.97983 8.76878 2.94527 8.79662 2.93099 8.83456C2.91347 8.88026 2.89631 8.92337 2.87963 8.96507C2.84747 9.04565 2.81711 9.12201 2.79143 9.19966C2.59379 9.80568 2.49683 10.4677 2.47715 11.3459L2.47679 11.3631C2.46203 12.002 2.44175 12.8773 2.70983 13.7148C2.97371 14.5394 3.43907 14.956 3.52931 15.0309L3.53891 15.0393C3.78455 15.2539 3.94451 15.4502 3.97763 15.5777C3.99095 15.6291 4.00451 15.6807 4.02035 15.7317C4.09043 15.9585 4.04663 16.1747 3.99935 16.4081C3.97583 16.5259 3.95135 16.6476 3.94283 16.7725C3.90899 17.2722 3.86747 17.7804 3.82727 18.2717L3.82367 18.3172C3.81335 18.4425 3.80303 18.5679 3.79283 18.6932C3.69035 17.5688 3.30995 16.5467 2.65547 15.6428C2.25467 15.0897 1.77683 14.6165 1.23491 14.2361C1.21151 14.2196 1.18691 14.2049 1.15403 14.1858C1.13807 14.1767 1.11959 14.1659 1.09715 14.1522C1.06331 14.1323 1.01987 14.1306 0.984952 14.1473C0.949192 14.1643 0.924592 14.1989 0.920512 14.2382C0.913192 14.3092 0.904672 14.3781 0.895672 14.4495C0.877552 14.5958 0.860392 14.7339 0.859672 14.8758C0.851632 16.3468 1.16951 17.7252 1.80479 18.9722C1.98179 19.3202 2.21567 19.6211 2.50019 19.8671C2.78231 20.1097 3.08675 20.2527 3.43031 20.3042C3.43787 20.3055 3.45587 20.3162 3.45863 20.3183C3.47723 20.3548 3.49655 20.3915 3.51587 20.4282C3.58451 20.5581 3.65543 20.6923 3.69071 20.8269C3.72011 20.9408 3.72011 21.0652 3.72011 21.197C3.72011 21.2453 3.72011 21.2939 3.72167 21.3416C3.75467 22.481 3.79799 22.8779 3.98423 23.896C3.87059 23.5932 3.72791 23.2897 3.54371 22.9977C2.79779 21.8158 1.85015 21.0136 0.646672 20.5455C0.570112 20.5153 0.493312 20.4936 0.404272 20.4682L0.386512 20.463C0.350392 20.4527 0.312112 20.4416 0.271192 20.4294C0.234232 20.4176 0.192112 20.4257 0.161992 20.4501C0.131992 20.4744 0.116272 20.5117 0.120232 20.5504C0.129112 20.6312 0.135232 20.7098 0.140872 20.7865C0.153232 20.9548 0.164872 21.1136 0.206512 21.2707C0.594832 22.739 1.23755 23.9084 2.17127 24.8459C2.57051 25.2467 2.99123 25.4765 3.45743 25.5485C3.57503 25.5665 3.71879 25.5687 3.96215 25.5539L4.03223 25.5498C4.04291 25.5492 4.05227 25.5486 4.06079 25.5486C4.07999 25.5486 4.08155 25.5486 4.09487 25.5679L4.42091 26.0062C4.42511 26.0119 4.43123 26.0327 4.43543 26.0471L4.44023 26.0628C4.77863 27.1858 5.19851 28.2675 5.69363 29.2941C5.47079 28.993 5.22659 28.7181 4.95443 28.4595C3.70283 27.2708 1.56299 27.2363 1.32311 27.2363L1.29323 27.2366L1.27439 27.24C1.21559 27.2604 1.18379 27.322 1.20191 27.3799C1.21859 27.4345 1.23419 27.4897 1.25207 27.5546C1.28627 27.6764 1.32179 27.8022 1.37159 27.9239C1.60871 28.504 1.99307 29.0619 2.58143 29.6805C2.98571 30.1046 3.44147 30.5347 4.03415 30.8066C4.68323 31.105 5.26931 31.1778 5.85215 31.0317C5.95127 31.0062 6.06527 30.9739 6.16331 30.9116C6.23315 30.8678 6.25223 30.8692 6.32087 30.9193C6.40223 30.9785 6.48875 31.0281 6.57275 31.0763C6.61919 31.103 6.66599 31.1299 6.70967 31.1569C6.71663 31.1626 6.73151 31.1865 6.73703 31.1953C7.25999 32.0303 7.83611 32.8063 8.45819 33.5142C8.12171 33.2745 7.77623 33.1011 7.40927 32.9857C6.28787 32.632 5.11247 32.677 3.94835 33.1176C3.77459 33.1835 3.58415 33.2833 3.57143 33.2904C3.54479 33.3075 3.52643 33.3353 3.52067 33.3671C3.51563 33.3983 3.52391 33.4303 3.54335 33.4547C3.57971 33.501 3.61487 33.5475 3.64967 33.5937L3.65735 33.6038C3.73595 33.7086 3.82499 33.8271 3.92483 33.9321C4.37447 34.404 4.92899 34.7203 5.46131 34.9919C6.19331 35.3637 6.94187 35.564 7.68635 35.5875C7.72139 35.5887 7.75643 35.5894 7.79135 35.5894C8.47619 35.5894 9.01079 35.3684 9.42287 34.9165C9.42791 34.913 9.44579 34.9063 9.45563 34.9062C9.61307 34.9172 9.76271 34.9397 9.87455 34.9579C9.89219 34.9609 9.91391 34.9713 9.92747 34.9832C10.6159 35.5799 11.345 36.1035 12.1067 36.5492C11.9912 36.5157 11.8723 36.4866 11.7506 36.4632C10.9367 36.3101 10.106 36.4062 9.19391 36.7609C8.57855 37.001 8.00627 37.3538 7.44431 37.8393C7.39799 37.8791 7.39151 37.9476 7.42967 37.995C7.62851 38.2428 7.88723 38.3815 8.11415 38.4844C8.66759 38.7362 9.29231 38.8973 10.0247 38.9774C10.0268 38.9776 10.2622 38.9975 10.5922 38.9975C10.8304 38.9975 11.052 38.9871 11.2506 38.9665C11.4404 38.947 11.6298 38.9152 11.8135 38.872C12.6574 38.6709 13.2292 38.2574 13.5568 37.6154C13.5626 37.6099 13.5878 37.5955 13.6198 37.5879C13.772 37.5509 13.9091 37.5248 14.0394 37.5078C14.0701 37.503 14.1084 37.5111 14.1566 37.5301C14.7394 37.7499 15.356 37.933 15.9883 38.0742C15.9972 38.0763 16.0064 38.0774 16.0157 38.0774C16.0582 38.0774 16.0973 38.0545 16.1179 38.0171C16.1783 37.9072 16.2518 37.8017 16.3364 37.7036C16.363 37.6727 16.3709 37.6316 16.3578 37.5935C16.3453 37.5567 16.3136 37.5287 16.2731 37.5194Z" fill="url(#paint1_linear)"/>
<path d="M20.6797 27V25.5547H23.5703V14.1484L20.6797 14.8711V13.3867L25.5039 12.1855V25.5547H28.3945V27H20.6797Z" fill="#F89838"/>
<defs>
<linearGradient id="paint0_linear" x1="-22.8735" y1="99.1559" x2="63.8006" y2="110.4" gradientUnits="userSpaceOnUse">
<stop stop-color="#FAD961"/>
<stop offset="1" stop-color="#F76B1C"/>
</linearGradient>
<linearGradient id="paint1_linear" x1="-54.5051" y1="99.1534" x2="32.1686" y2="110.397" gradientUnits="userSpaceOnUse">
<stop stop-color="#FAD961"/>
<stop offset="1" stop-color="#F76B1C"/>
</linearGradient>
</defs>
</svg>
